<svg width="21" height="21" viewBox="0 0 21 21" fill="none" xmlns="http://www.w3.org/2000/svg">
	<path fill-rule="evenodd" clip-rule="evenodd" fill="white" d="M3 0H18C19.65 0 21 1.3501 21 3V18C21 19.6499 19.65 21 18 21H3C1.34998 21 0 19.6499 0 18V3C0 1.3501 1.34998 0 3 0ZM14 10.5C14 8.57007 12.43 7 10.5 7C8.57001 7 7 8.57007 7 10.5C7 12.4299 8.57001 14 10.5 14C12.43 14 14 12.4299 14 10.5ZM3 18V9H4.18103C4.06262 9.49121 4.00183 9.99463 4 10.5C4 14.0898 6.91016 17 10.5 17C14.0898 17 17 14.0898 17 10.5C16.9987 9.99463 16.9379 9.49121 16.819 9H18V18H3ZM14 7H18V3H14V7Z"/>
</svg>
